<?xml version="1.0" standalone="no"?><!DOCTYPE svg PUBLIC "-//W3C//DTD SVG 1.1//EN" "http://www.w3.org/Graphics/SVG/1.1/DTD/svg11.dtd"><svg t="1513264055620" class="icon" style="" viewBox="0 0 1024 1024" version="1.1" xmlns="http://www.w3.org/2000/svg" p-id="1744" xmlns:xlink="http://www.w3.org/1999/xlink" width="200" height="200"><defs><style type="text/css"></style></defs><path d="M0.627911 942.382022V174.303859c0.521088-0.65136 1.370461-1.370461 1.370461-2.02182 1.818596-18.1078 9.832926-33.808175 21.557401-47.158443 19.410519-22.078489 44.292461-32.500244 73.603647-32.500245h90.080443V21.359388c0-2.407426 0.65136-4.75232 1.047387-7.164957C189.6525 5.533952 197.208272 3.579873 203.331054 0h13.548282c14.527927 5.210878 18.1078 16.476795 17.716984 30.613907-0.521088 17.388699-0.130272 34.975411-0.130272 52.431851v9.181567h555.93291c0-20.645497 0.396027-40.837649-0.125061-60.962059-0.385605-14.397655 2.67318-25.991858 17.654453-31.265266h13.610813c12.70412 5.34115 17.326168 14.913532 16.283993 28.461814-0.844162 15.179287-0.192802 30.353363-0.192803 45.464908v18.75916h8.139391c28.404494 0 56.741247-0.130272 85.005048 0.130272 5.992509 0 11.854747 0.260544 17.586713 1.432991 29.769744 6.904413 52.952939 23.058134 66.43869 51.264615 3.32454 7.034685 5.731965 14.652988 8.535418 21.948217v781.756717c-1.047386 2.537697-1.886338 5.210878-2.803452 7.748575-11.333659 34.068718-33.933236 55.954405-69.10666 64.224068-3.454812 0.786843-6.64908 1.891549-9.905879 2.803452H83.418336c-0.396027-0.390816-0.849373-1.177658-1.370461-1.302719a82.482983 82.482983 0 0 1-36.2156-12.313304 86.62042 86.62042 0 0 1-37.51832-43.250285c-2.865983-7.936167-5.012864-16.471584-7.686044-24.746459M48.17717 373.291646v555.609836c0 26.314932 20.259893 47.67432 47.747272 47.67432 277.734571 0.130272 555.542094 0.130272 833.281876 0a46.892688 46.892688 0 0 0 47.940075-48.200619c0.125061-182.448461 0.125061-364.886501 0.125061-547.397492v-7.488031c-309.974271-0.198013-619.114802-0.198013-929.094284-0.198014m0-48.200618h928.77121c0.260544-1.36525 0.260544-2.277154 0.260544-3.058786 0-45.402377 0.265755-90.799544-0.125061-136.13418a41.32226 41.32226 0 0 0-2.021821-11.724475c-7.357759-22.735059-23.777235-33.094284-45.527439-33.808174-28.592086-0.781632-57.251913-0.260544-85.854421-0.130272-1.631005 0-3.449601 0.260544-5.596482 0.521088 0 24.491125 0.260544 48.461163-0.265755 72.561472a21.870054 21.870054 0 0 1-5.210878 13.157466c-7.878847 8.66569-18.040059 9.317049-28.85263 5.080606-7.097215-2.798241-12.959453-11.724475-12.959452-20.906042-0.130272-19.019704 0-38.17489 0-57.194593v-12.698909H234.726592c0 22.474516 0.260544 44.490474-0.130272 66.43869-0.260544 15.179287-5.012864 23.839766-21.302068 26.705749-9.832926 1.756066-26.309722-5.408891-26.054389-20.582967 0.260544-21.817945 0.130272-43.510829 0.130272-65.328774v-7.623514h-85.979482c-4.293763 0-8.399935 0.911904-12.631168 1.240189-25.403029 1.756066-40.973131 27.419638-40.712587 47.872333 0.521088 42.729197 0.130272 85.328122 0.130272 128.05732v7.555773z" p-id="1745"></path><path d="M357.083211 458.39049h309.791891v394.51034h-36.934701v-30.848396H394.017912v30.848396h-36.934701V458.39049z m36.934701 162.496011h235.922489V490.974108H394.017912v129.912393z m0 169.452532h235.922489v-136.868914H394.017912v136.868914z" p-id="1746"></path></svg>