<?xml version="1.0" standalone="no"?><!DOCTYPE svg PUBLIC "-//W3C//DTD SVG 1.1//EN" "http://www.w3.org/Graphics/SVG/1.1/DTD/svg11.dtd"><svg t="1513267180250" class="icon" style="" viewBox="0 0 1024 1024" version="1.1" xmlns="http://www.w3.org/2000/svg" p-id="1442" xmlns:xlink="http://www.w3.org/1999/xlink" width="200" height="200"><defs><style type="text/css"></style></defs><path d="M464.499661 672.468738c0 25.632797 11.533684 47.397496 34.278711 64.688301 22.312168 16.962324 50.198286 25.562189 82.882686 25.562189 33.003672 0 60.801784-8.42181 82.619696-25.035186 22.25077-16.934694 33.533744-38.734186 33.533744-64.791655 0-30.197766-14.623046-53.869908-43.500746-70.480214 25.480324-17.517979 38.384216-39.504736 38.384216-65.459874 0-25.102724-10.766205-46.490847-32.001855-63.570851-20.905122-16.806781-46.812165-25.327852-77.003791-25.327852-30.67872 0-57.043181 8.588609-78.356602 25.52535-21.663392 17.216103-32.648584 38.538735-32.648584 63.373353 0 14.282285 3.492544 27.071565 10.380418 38.013779 5.697769 9.054213 14.580067 18.173918 26.459628 27.183106C479.638453 619.088994 464.499661 642.712017 464.499661 672.468738zM546.124703 509.942131c9.353019-7.454786 21.655206-11.234879 36.567847-11.234879 14.724353 0 26.978445 3.848655 36.422538 11.437493 9.231245 7.426133 13.719466 16.570397 13.719466 27.958772 0 10.694573-4.623297 19.677155-14.130835 27.459399-9.812483 8.035-21.427008 11.93789-35.507702 11.93789-14.274098 0-26.107611-3.946892-36.178991-12.07399-9.734712-7.846712-14.46648-16.922415-14.46648-27.746948C532.550547 526.292518 536.989649 517.219885 546.124703 509.942131zM540.2366 641.083937c10.259668-7.900947 23.860431-11.906168 40.425711-11.906168 16.900925 0 30.766724 3.983731 41.211611 11.833513 10.128685 7.628748 15.053857 17.174148 15.053857 29.185716l0 4.252861c0 10.952446-4.802376 19.671015-14.682397 26.649963-10.295484 7.274684-23.782659 10.964726-40.089044 10.964726-17.08819 0-31.082926-4.015454-41.596374-11.93789-10.210549-7.68503-15.172561-17.33583-15.172561-29.506011C525.387403 658.440234 530.244015 648.778176 540.2366 641.083937z" p-id="1443"></path><path d="M326.185502 726.839043c0 0.039909 0.00307 0.079818 0.00307 0.119727l0 0.343831 0.00921 0c0.248663 16.458857 13.659091 29.723975 30.175253 29.723975s29.92659-13.265118 30.175253-29.723975l0.01535 0L386.563638 480.496495 386.557498 480.496495c0-0.033769 0.002047-0.066515 0.002047-0.100284 0-16.672728-13.515828-30.187533-30.187533-30.187533s-30.187533 13.514805-30.187533 30.187533c0 0.039909 0.00307 0.078795 0.00307 0.118704l0 246.206448C326.188572 726.761272 326.185502 726.799134 326.185502 726.839043z" p-id="1444"></path><path d="M693.570847 279.753495c26.999934 0 48.88743-21.554922 48.88743-48.131207l0-50.406017c0-26.576285-21.88852-48.109718-48.88743-48.109718-27.018354 0-48.925293 21.533432-48.925293 48.109718l0 50.406017C644.646578 258.198573 666.552493 279.753495 693.570847 279.753495z" p-id="1445"></path><path d="M327.746044 279.753495c27.018354 0 48.907896-21.554922 48.907896-48.131207l0-50.406017c0-26.576285-21.889543-48.109718-48.907896-48.109718-26.998911 0-48.904827 21.533432-48.904827 48.109718l0 50.406017C278.841218 258.198573 300.747133 279.753495 327.746044 279.753495z" p-id="1446"></path><path d="M854.35374 265.833461c0-38.809911-22.189372-56.839543-57.190537-56.839543l-28.304649-2.574638 0 24.445762c0 40.500413-33.377178 73.317843-74.513064 73.317843-41.166585 0-74.531484-32.81743-74.531484-73.317843l0-24.445762L403.055241 206.41928l0 24.445762c0 40.500413-33.380248 73.317843-74.514087 73.317843-41.167608 0-74.53046-32.81743-74.53046-73.317843l0-24.445762-27.812439 2.574638c-27.438932 0-57.204863 29.839609-57.204863 56.839543 0 0 0 451.081559 0 549.298488 0 45.409213 36.9741 75.760474 71.045079 75.760474 51.232848 0 450.361151-0.014326 538.057469-0.014326 38.931684 0 76.910671-27.267017 76.910671-70.838372C855.005586 691.809225 854.35374 265.833461 854.35374 265.833461zM818.523697 782.317589c0 50.593282-15.544021 70.685899-59.498092 70.685899-114.238834 0-380.15109 0-494.705102 0-36.868699 0-57.173141-19.296485-57.173141-56.839543 0-125.126812-1.954515-428.66399-1.954515-428.66399l613.595886 0C818.788733 367.499955 818.523697 656.972812 818.523697 782.317589z" p-id="1447"></path></svg>