<?xml version="1.0" standalone="no"?><!DOCTYPE svg PUBLIC "-//W3C//DTD SVG 1.1//EN" "http://www.w3.org/Graphics/SVG/1.1/DTD/svg11.dtd"><svg t="1513267239624" class="icon" style="" viewBox="0 0 1024 1024" version="1.1" xmlns="http://www.w3.org/2000/svg" p-id="2230" xmlns:xlink="http://www.w3.org/1999/xlink" width="200" height="200"><defs><style type="text/css"></style></defs><path d="M287.827893 743.106542c0 10.29139 8.340969 18.633383 18.633383 18.633383 0.494257 0 0.980327-0.035816 1.465374-0.073678l182.776813 0 0-0.025583c13.862729-0.296759 25.009603-11.620665 25.009603-25.555026 0-13.931291-11.147898-25.25622-25.009603-25.552979l0-0.031722L389.484154 710.500936l2.060939-2.136663c30.054503-30.535457 51.68208-55.038524 64.283072-72.828702 12.694113-17.922185 21.700231-34.073026 26.767644-48.01148 5.100158-14.048971 7.687076-27.480888 7.687076-39.929408 0-28.077475-10.544147-51.560306-31.339776-69.793576-20.599154-18.061354-47.065945-27.220968-78.665641-27.220968-26.266224 0-52.128241 7.582699-77.029374 22.559808-0.020466 0.01228-0.030699 0.031722-0.047072 0.046049-0.836041 0.456395-1.65264 0.944512-2.427282 1.490957-6.437619 4.53427-10.642384 12.023848-10.642384 20.4958 0 13.836123 11.216459 25.051559 25.051559 25.051559 5.322216 0 10.253528-1.663896 14.310937-4.494361 1.904373-1.121544 3.826142-2.201132 5.783727-3.192715 12.798491-6.482645 25.935696-9.769504 39.044248-9.769504 17.08819 0 30.893614 4.675486 41.030485 13.898545 10.138918 9.223059 15.068184 21.183462 15.068184 36.56273 0 11.235902-2.822278 22.816658-8.385994 34.416857-5.736655 11.948123-18.334577 30.027897-37.44175 53.735855-11.337209 14.068414-25.098631 30.065759-41.135886 47.827285-5.262864 5.829775-31.787984 28.55229-45.718251 37.434587l0 0C291.845393 729.776955 287.827893 735.970004 287.827893 743.106542z" p-id="2231"></path><path d="M538.842857 608.03217c19.961634 17.630542 44.198641 26.570145 72.036663 26.570145 17.193591 0 32.861432-2.638083 46.750767-7.856945-6.995321 16.22452-18.188244 32.272008-33.391505 47.845705-13.894452 14.240329-29.709649 27.030633-47.15395 38.22765-0.280386 0.144286-0.564865 0.280386-0.839111 0.433882-8.098445 4.504594-13.580297 13.170974-13.580297 23.122627 0 14.588253 11.780301 26.412556 26.311249 26.412556 4.082992 0 7.950066-0.934279 11.398608-2.600221 0.035816-0.01535 0.070608-0.024559 0.106424-0.044002 0.082888-0.046049 0.164752-0.092098 0.24764-0.137123 0.734734-0.36839 1.449002-0.77055 2.142803-1.203408 37.087687-20.808932 68.299549-48.706305 92.869131-83.066881 26.828019-37.522592 40.430828-75.280544 40.430828-112.230084 0-33.050744-11.122315-60.555168-33.059953-81.747839-21.88545-21.143553-50.326199-31.864732-84.532255-31.864732-30.422893 0-56.593949 9.058306-77.783551 26.923186-21.439288 18.075681-32.30987 40.483017-32.30987 66.598814C508.484432 568.500828 518.699074 590.241992 538.842857 608.03217zM582.477656 511.716544c9.692756-8.5487 21.696138-12.703323 36.699853-12.703323 16.410762 0 29.418007 4.9088 39.764656 15.005762 10.30674 10.058077 15.31787 22.700001 15.31787 38.647205 0 2.012843-0.448208 6.947226-2.512217 18.9854-16.307408 9.18008-33.138748 13.833053-50.068326 13.833053-14.909571 0-27.331485-4.231371-37.97387-12.933567-10.334369-8.444323-15.357779-18.111496-15.357779-29.5582C568.347844 530.325367 572.969095 520.095375 582.477656 511.716544z" p-id="2232"></path><path d="M693.570847 279.753495c26.999934 0 48.88743-21.554922 48.88743-48.131207l0-50.406017c0-26.576285-21.88852-48.109718-48.88743-48.109718-27.018354 0-48.925293 21.533432-48.925293 48.109718l0 50.406017C644.646578 258.19755 666.552493 279.753495 693.570847 279.753495z" p-id="2233"></path><path d="M854.35374 265.832438c0-38.809911-22.189372-56.839543-57.190537-56.839543l-28.304649-2.574638 0 24.445762c0 40.500413-33.377178 73.317843-74.513064 73.317843-41.166585 0-74.531484-32.81743-74.531484-73.317843l0-24.445762L403.055241 206.418256l0 24.445762c0 40.500413-33.380248 73.317843-74.514087 73.317843-41.167608 0-74.53046-32.81743-74.53046-73.317843l0-24.445762-27.812439 2.574638c-27.438932 0-57.204863 29.839609-57.204863 56.839543 0 0 0 451.082582 0 549.300534 0 45.407166 36.9741 75.760474 71.045079 75.760474 51.232848 0 450.361151-0.014326 538.057469-0.014326 38.931684 0 76.910671-27.269064 76.910671-70.840418C855.005586 691.808202 854.35374 265.832438 854.35374 265.832438zM818.523697 782.318612c0 50.593282-15.544021 70.685899-59.498092 70.685899-114.238834 0-380.15109 0-494.705102 0-36.868699 0-57.173141-19.296485-57.173141-56.839543 0-125.126812-1.954515-428.666036-1.954515-428.666036l613.595886 0C818.788733 367.499955 818.523697 656.973836 818.523697 782.318612z" p-id="2234"></path><path d="M327.746044 279.753495c27.018354 0 48.907896-21.554922 48.907896-48.131207l0-50.406017c0-26.576285-21.889543-48.109718-48.907896-48.109718-26.998911 0-48.904827 21.533432-48.904827 48.109718l0 50.406017C278.841218 258.19755 300.747133 279.753495 327.746044 279.753495z" p-id="2235"></path></svg>