<?xml version="1.0" standalone="no"?><!DOCTYPE svg PUBLIC "-//W3C//DTD SVG 1.1//EN" "http://www.w3.org/Graphics/SVG/1.1/DTD/svg11.dtd"><svg t="1513267193270" class="icon" style="" viewBox="0 0 1024 1024" version="1.1" xmlns="http://www.w3.org/2000/svg" p-id="1555" xmlns:xlink="http://www.w3.org/1999/xlink" width="200" height="200"><defs><style type="text/css"></style></defs><path d="M395.342582 677.212786c0 25.632797 11.533684 47.39545 34.278711 64.688301 22.312168 16.962324 50.197262 25.562189 82.882686 25.562189 33.003672 0 60.800761-8.423857 82.619696-25.037233 22.25077-16.932648 33.533744-38.73214 33.533744-64.789609 0-30.197766-14.623046-53.871955-43.500746-70.480214 25.480324-17.520025 38.384216-39.506782 38.384216-65.459874 0-25.102724-10.766205-46.491871-32.001855-63.570851-20.905122-16.806781-46.812165-25.328875-77.003791-25.328875-30.679743 0-57.043181 8.588609-78.356602 25.526373-21.664416 17.216103-32.648584 38.537711-32.648584 63.373353 0 14.280238 3.492544 27.071565 10.380418 38.013779 5.697769 9.052167 14.580067 18.173918 26.459628 27.181059C410.48035 623.830995 395.342582 647.455041 395.342582 677.212786zM476.966601 514.687202c9.351995-7.455809 21.655206-11.235902 36.567847-11.235902 14.724353 0 26.978445 3.849678 36.421514 11.438517 9.231245 7.42511 13.72049 16.570397 13.72049 27.958772 0 10.694573-4.623297 19.677155-14.130835 27.459399-9.813506 8.032954-21.427008 11.93789-35.507702 11.93789-14.274098 0-26.107611-3.948939-36.178991-12.07399-9.734712-7.846712-14.467503-16.922415-14.467503-27.746948C463.392444 531.036565 467.83257 521.962909 476.966601 514.687202zM471.07952 645.825938c10.258645-7.898901 23.860431-11.904121 40.425711-11.904121 16.900925 0 30.766724 3.981684 41.211611 11.833513 10.128685 7.626701 15.053857 17.174148 15.053857 29.185716l0 4.252861c0 10.952446-4.802376 19.668968-14.682397 26.647917-10.295484 7.27673-23.783683 10.966773-40.089044 10.966773-17.08819 0-31.082926-4.0175-41.597397-11.93789-10.209526-7.687076-15.172561-17.337877-15.172561-29.506011C456.229301 663.184281 461.086935 653.521201 471.07952 645.825938z" p-id="1556"></path><path d="M327.746044 279.753495c27.018354 0 48.907896-21.554922 48.907896-48.131207l0-50.406017c0-26.576285-21.889543-48.109718-48.907896-48.109718-26.998911 0-48.904827 21.533432-48.904827 48.109718l0 50.406017C278.841218 258.198573 300.747133 279.753495 327.746044 279.753495z" p-id="1557"></path><path d="M693.570847 279.753495c26.999934 0 48.888454-21.554922 48.888454-48.131207l0-50.406017c0-26.576285-21.889543-48.109718-48.888454-48.109718-27.01733 0-48.925293 21.533432-48.925293 48.109718l0 50.406017C644.646578 258.198573 666.553517 279.753495 693.570847 279.753495z" p-id="1558"></path><path d="M854.35374 265.833461c0-38.809911-22.189372-56.839543-57.189514-56.839543l-28.304649-2.574638 0 24.445762c0 40.500413-33.377178 73.317843-74.513064 73.317843-41.167608 0-74.531484-32.81743-74.531484-73.317843l0-24.445762L403.055241 206.41928l0 24.445762c0 40.500413-33.380248 73.317843-74.514087 73.317843-41.167608 0-74.53046-32.81743-74.53046-73.317843l0-24.445762-27.812439 2.574638c-27.438932 0-57.204863 29.839609-57.204863 56.839543 0 0 0 451.081559 0 549.298488 0 45.409213 36.9741 75.760474 71.045079 75.760474 51.232848 0 450.361151-0.014326 538.058492-0.014326 38.931684 0 76.909647-27.267017 76.909647-70.838372C855.005586 691.809225 854.35374 265.833461 854.35374 265.833461zM818.52472 782.317589c0 50.593282-15.545044 70.685899-59.498092 70.685899-114.238834 0-380.152113 0-494.706125 0-36.868699 0-57.173141-19.296485-57.173141-56.839543 0-125.126812-1.954515-428.66399-1.954515-428.66399l613.595886 0C818.788733 367.499955 818.52472 656.972812 818.52472 782.317589z" p-id="1559"></path></svg>