<?xml version="1.0" standalone="no"?><!DOCTYPE svg PUBLIC "-//W3C//DTD SVG 1.1//EN" "http://www.w3.org/Graphics/SVG/1.1/DTD/svg11.dtd"><svg t="1513579770879" class="icon" style="" viewBox="0 0 1024 1024" version="1.1" xmlns="http://www.w3.org/2000/svg" p-id="18727" xmlns:xlink="http://www.w3.org/1999/xlink" width="200" height="200"><defs><style type="text/css"></style></defs><path d="M554.666667 554.666667c-85.333333 0-256 42.666667-256 128v85.333333h512v-85.333333c0-85.333333-170.666667-128-256-128m282.453333 6.826666c35.413333 30.72 58.88 70.826667 58.88 121.173334v85.333333h128v-85.333333c0-65.706667-101.12-106.666667-186.88-121.173334M554.666667 469.333333a128 128 0 0 0 128-128 128 128 0 0 0-128-128 128 128 0 0 0-128 128 128 128 0 0 0 128 128m213.333333 0a128 128 0 0 0 128-128 128 128 0 0 0-128-128c-13.653333 0-26.88 2.133333-39.253333 5.973334 24.32 34.56 39.253333 76.8 39.253333 122.026666 0 45.226667-14.933333 87.04-39.253333 121.6 12.373333 4.266667 25.6 6.4 39.253333 6.4M341.333333 426.666667H213.333333V298.666667H128v128H0v85.333333h128v128h85.333333v-128h128v-85.333333z" fill="" p-id="18728"></path></svg>