<?xml version="1.0" standalone="no"?><!DOCTYPE svg PUBLIC "-//W3C//DTD SVG 1.1//EN" "http://www.w3.org/Graphics/SVG/1.1/DTD/svg11.dtd"><svg t="1513583899812" class="icon" style="" viewBox="0 0 1024 1024" version="1.1" xmlns="http://www.w3.org/2000/svg" p-id="19297" xmlns:xlink="http://www.w3.org/1999/xlink" width="200" height="200"><defs><style type="text/css"></style></defs><path d="M512 853.333333a298.666667 298.666667 0 0 1-298.666667-298.666666 298.666667 298.666667 0 0 1 298.666667-298.666667 298.666667 298.666667 0 0 1 298.666667 298.666667 298.666667 298.666667 0 0 1-298.666667 298.666666m0-682.666666a384 384 0 0 0-384 384 384 384 0 0 0 384 384 384 384 0 0 0 384-384 384 384 0 0 0-384-384m21.333333 170.666666H469.333333v256l202.666667 121.6 32-52.48-170.666667-101.12V341.333333M336.213333 144.64L281.6 79.36 85.333333 243.626667l55.04 65.28 195.84-164.266667M938.666667 244.053333l-196.266667-164.693333-55.04 65.28 196.266667 164.693333L938.666667 244.053333z" fill="" p-id="19298"></path></svg>