<?xml version="1.0" standalone="no"?><!DOCTYPE svg PUBLIC "-//W3C//DTD SVG 1.1//EN" "http://www.w3.org/Graphics/SVG/1.1/DTD/svg11.dtd"><svg t="1513583787494" class="icon" style="" viewBox="0 0 1024 1024" version="1.1" xmlns="http://www.w3.org/2000/svg" p-id="19069" xmlns:xlink="http://www.w3.org/1999/xlink" width="200" height="200"><defs><style type="text/css"></style></defs><path d="M256 810.666667a85.333333 85.333333 0 0 0 85.333333 85.333333h341.333334a85.333333 85.333333 0 0 0 85.333333-85.333333V298.666667H256v512m104.96-303.786667l60.16-60.16L512 537.173333l90.453333-90.453333 60.16 60.16L572.16 597.333333l90.453333 90.453334-60.16 60.16L512 657.493333l-90.453333 90.453334-60.16-60.16L451.84 597.333333l-90.88-90.453333M661.333333 170.666667l-42.666666-42.666667h-213.333334l-42.666666 42.666667H213.333333v85.333333h597.333334V170.666667h-149.333334z" fill="" p-id="19070"></path></svg>