<?xml version="1.0" standalone="no"?><!DOCTYPE svg PUBLIC "-//W3C//DTD SVG 1.1//EN" "http://www.w3.org/Graphics/SVG/1.1/DTD/svg11.dtd"><svg t="1513583557379" class="icon" style="" viewBox="0 0 1024 1024" version="1.1" xmlns="http://www.w3.org/2000/svg" p-id="18955" xmlns:xlink="http://www.w3.org/1999/xlink" width="200" height="200"><defs><style type="text/css"></style></defs><path d="M512 853.333333c-188.16 0-341.333333-153.173333-341.333333-341.333333s153.173333-341.333333 341.333333-341.333333 341.333333 153.173333 341.333333 341.333333-153.173333 341.333333-341.333333 341.333333m0-768A426.666667 426.666667 0 0 0 85.333333 512a426.666667 426.666667 0 0 0 426.666667 426.666667 426.666667 426.666667 0 0 0 426.666667-426.666667A426.666667 426.666667 0 0 0 512 85.333333m42.666667 213.333334h-85.333334v170.666666H298.666667v85.333334h170.666666v170.666666h85.333334v-170.666666h170.666666v-85.333334h-170.666666V298.666667z" fill="" p-id="18956"></path></svg>